<?xml version="1.0" encoding="utf-8"?>
<!-- Generator: Adobe Illustrator 26.1.0, SVG Export Plug-In . SVG Version: 6.00 Build 0)  -->
<svg version="1.1" id="Layer_1" xmlns="http://www.w3.org/2000/svg" x="0px" y="0px"
	 viewBox="0 0 100 100" style="enable-background:new 0 0 100 100;" xml:space="preserve">
<style type="text/css">
	.st0{fill:#03AA4B;}
</style>
<path class="st0" d="M70.7,54c1.4,0.7,2.9,1.4,4.3,2.1c1.6,0.7,3.4,1.2,5.2,1.3c7.3,0.5,13.9-5.2,14-12.6c0.1-5.5-3.8-10.5-9.3-11.5
	c-3.5-0.7-7.3,0.4-9.7,3c-0.3,0.3-1.4,1.4-1.7,1.8C63.8,48,54,57.8,44.1,67.5c-0.8,0.8-2,2-3,2.7c-6.7,5.4-16.1,7-24.2,4.1
	c-9.4-3.1-16.3-12.1-16.9-22c-0.9-12.5,8.2-24,20.7-25.5c6.5-0.8,12.5,1.2,17.5,5.3c2.7,2.1,5.6,4.3,8.2,6.4c-3-1.4-6.4-3.1-9.4-4.6
	c-3.8-2.2-8-3.3-12.4-2.9c-5,0.4-9.8,3-13,7C5.6,45.9,6.9,57.4,15,63.1c5.1,3.7,12.3,4.1,17.8,0.9c1.6-0.9,3-2.2,4.3-3.5
	c9.8-9.8,19.9-19.4,30-28.9c0.4-0.4,1.6-1.5,2-1.9c9.6-8.7,25.4-5.2,29.8,7.1c2.9,7.9-0.4,17.2-7.9,21.1c-5.1,2.7-11.5,2.5-16.2-0.8
	c-0.2-0.1-0.5-0.4-0.7-0.5C73,55.8,71.8,54.9,70.7,54L70.7,54z"/>
</svg>
