<?xml version="1.0" standalone="no"?>
<!DOCTYPE svg PUBLIC "-//W3C//DTD SVG 20010904//EN"
 "http://www.w3.org/TR/2001/REC-SVG-20010904/DTD/svg10.dtd">
<svg version="1.0" xmlns="http://www.w3.org/2000/svg"
 width="700.000000pt" height="700.000000pt" viewBox="0 0 700.000000 700.000000"
 preserveAspectRatio="xMidYMid meet">
<metadata>
Created by potrace 1.14, written by Peter Selinger 2001-2017
</metadata>
<g transform="translate(0.000000,700.000000) scale(0.100000,-0.100000)"
fill="#000000" stroke="none">
<path d="M5608 5255 c-1 -1 -32 -6 -68 -9 -127 -13 -374 -94 -452 -148 -14
-10 -29 -18 -33 -18 -10 0 -115 -73 -165 -115 -25 -20 -107 -96 -184 -169 -76
-72 -150 -142 -165 -155 -14 -13 -96 -90 -181 -171 -85 -81 -175 -166 -200
-189 -25 -23 -119 -113 -209 -199 -90 -86 -183 -175 -206 -197 -63 -60 -425
-409 -552 -532 -61 -59 -246 -241 -410 -403 -164 -162 -332 -321 -373 -352
-143 -108 -310 -180 -490 -212 -93 -16 -294 -18 -368 -4 -26 4 -58 11 -72 13
-48 9 -66 14 -130 35 -203 68 -387 197 -531 370 -112 136 -205 328 -238 492
-6 29 -13 67 -17 83 -3 17 -7 96 -9 176 -2 121 2 165 21 255 62 294 190 519
405 708 160 142 411 264 608 297 31 5 72 12 91 15 121 20 365 3 515 -36 129
-34 154 -44 510 -220 426 -211 508 -250 513 -246 2 2 -13 17 -33 33 -21 15
-72 55 -114 88 -42 34 -134 106 -205 160 -71 55 -163 126 -205 159 -341 263
-680 381 -1065 370 -590 -17 -1130 -361 -1408 -899 -68 -130 -133 -309 -155
-424 -32 -168 -42 -427 -23 -581 49 -378 236 -751 515 -1023 269 -263 567
-413 970 -488 76 -14 379 -18 486 -7 175 19 417 92 582 175 217 108 336 202
662 523 413 406 1692 1687 1900 1904 230 240 305 295 465 340 97 27 234 37
306 22 16 -3 44 -8 63 -11 69 -11 242 -80 261 -104 3 -3 24 -19 48 -35 52 -35
153 -142 189 -199 95 -150 137 -297 135 -467 -5 -334 -209 -642 -524 -790
-130 -61 -223 -82 -368 -86 -198 -4 -323 28 -559 143 -181 89 -183 90 -155 66
90 -79 276 -210 364 -256 92 -49 220 -93 297 -102 26 -4 56 -9 66 -11 21 -7
233 -6 267 0 14 3 43 7 64 11 162 24 368 119 513 237 489 398 581 1132 206
1655 -75 105 -143 177 -249 263 -87 70 -270 166 -389 203 -71 22 -105 30 -220
52 -32 7 -291 15 -297 10z"/>
</g>
</svg>
